<svg id="Capa_1" data-name="Capa 1" xmlns="http://www.w3.org/2000/svg" viewBox="0 0 299.74 99.07" width="100" height="33"><title>ELEMENTOS SITIO WEB</title><path d="M.65,0c3,2.12,6.49,2.89,10,3.44,7.47,1.17,14.94.2,22.41,0,6.45-.2,12.9-.53,19.35-.62,4.62-.07,8.17,2.26,10.93,5.79,4.5,5.76,8.92,11.57,13.55,17.6a34.11,34.11,0,0,1-3.64,1.46c-7.68,2.1-15.31,4.49-23.1,6.1-8.26,1.71-16.42.88-23.93-3.48-1-.6-2.06-1.2-3.08-1.82-.06,0-.05-.19-.11-.41,6.17-.88,12.46-.47,18.57-1.59l0-.59a11.4,11.4,0,0,0-1.16-.12c-4,.1-7.93.34-11.88.27a33.61,33.61,0,0,1-14.69-3.65A12.15,12.15,0,0,1,8,15.67,1.89,1.89,0,0,1,7.89,15c0-.09.1-.18.23-.41C15,17.1,22.21,17.2,29.43,16.57L29.5,16c-1.82-.2-3.64-.35-5.45-.6A107.53,107.53,0,0,1,13,13.73C7.72,12.46,3.72,9.42,1.74,4.12A34.07,34.07,0,0,0,0,.65Z"/><path d="M299.74.65q-1.19,2.4-2.35,4.8a14.56,14.56,0,0,1-8.05,7.38c-5,2-10.34,2.14-15.6,2.71a13.63,13.63,0,0,0-3.48.71c7.25,1,14.41.84,21.78-1.77a10.68,10.68,0,0,1-3.2,5.65c-3.66,3.2-8.12,4.55-12.85,5.34-5.68,1-11.35.62-17,.24a1.2,1.2,0,0,0-.91.46,4,4,0,0,0,1.18.52c5.46.4,10.93.76,16.4,1.13.35,0,.69.14,1.53.3-1.48.87-2.57,1.52-3.67,2.14a31.63,31.63,0,0,1-17,4.23,62.72,62.72,0,0,1-14.86-2.57c-4.89-1.42-9.81-2.73-14.7-4.15-1.42-.41-2.77-1-4.13-1.56,4.65-6.05,9.06-11.87,13.57-17.62,2.92-3.71,6.65-6,11.57-5.78,9.11.38,18.21.86,27.33,1.09,5.84.14,11.75.52,17.46-1.16A52.86,52.86,0,0,0,299.08,0Z"/><path d="M60.13,56l6.64-37.68H97.5L95.93,27.1H77.56l-1,5.39H92.16l-1.52,8.79H75.1l-1,5.92h19.1L91.58,56Z"/><path d="M123.51,38.87l1-8.58,2.1-12h11.83L131.83,56H120.26l-9.84-20.52-1,8.59L107.28,56H95.45l6.65-37.68h11.57Z"/><path d="M141.14,18.31H153.6l2.14,25.07,11.31-25.07h12.46L159.78,56H147.37Z"/><path d="M176,56l6.64-37.68h12.35L188.3,56ZM190.76,7.11H201.7l-10.37,7.74h-7.17Z"/><path d="M235.14,36.94C232.89,49.76,223,57,211.85,57c-11.83,0-18.48-7.32-16.17-20.15a22.85,22.85,0,0,1,23.13-19.52C232.26,17.31,236.92,27,235.14,36.94Zm-27.16,0c-.84,4.81-.42,10.83,5.49,10.83,5.34,0,8.22-4.6,9.32-10.83.89-5.13-.21-10.57-5.71-10.42S208.81,32.18,208,36.94Z"/><path d="M82.24,98.19H74.29l.15-3.72c-2.46,2.41-6.23,4.6-12.14,4.6-9.63,0-17.17-6.22-14.86-19.36,2.09-12,11.09-20.31,23.29-20.31,9,0,15.49,4.71,15.38,14H74.39c-.31-3.09-2.3-4.77-5.5-4.77-4.86,0-8,4.4-9.1,11-.94,5.34-.11,10.2,6.12,10.2,2.51,0,6-1.72,7.07-4.34H67.53L69,77.36H85.9Z"/><path d="M101.5,84.94,99.2,98.08H86.84L93.49,60.4h17.8c12.56,0,16.06,3.4,14.81,10.73-.79,4.34-3.35,8-8,9.21,3.72,1.46,6,2.41,4.61,10-.84,4.92-1.31,6.6.16,6.6l-.21,1.15H110.19a24.81,24.81,0,0,1,.52-6.59c.89-4.92.31-6.55-5.44-6.55ZM103,76.67h4.86c3.82,0,6-.94,6.49-3.55s-1.41-3.93-4.29-3.93h-5.76Z"/><path d="M122.85,98.08,143,60.4h12.56l6.86,37.68h-12.3l-.58-5h-12.3l-2.3,5Zm24.34-26.32L141,85.26h7.8Z"/><path d="M164.36,60.4H198.9l-1.73,9.89H186.08l-4.92,27.79H168.8l4.92-27.79H162.63Z"/><path d="M195.76,98.08,202.4,60.4h12.35l-6.64,37.68Z"/><path d="M238,71.34a2.64,2.64,0,0,0-1.3-2.57,6.3,6.3,0,0,0-3.09-.68c-2.72,0-4.08.79-4.29,2.15-1,5.65,21.3,2.14,18.84,15.86-1.52,8.74-9.53,13-19.89,13-9.94,0-15.44-5.8-14.5-12.61h11.83a3.54,3.54,0,0,0,1.52,3,6,6,0,0,0,3.35.94c3.09,0,5.28-1,5.6-2.78,1-5.7-21.36-1.78-18.79-16.17,1.41-8,9-12,18.42-12,10.47,0,14.29,5.34,14,11.94Z"/></svg>