<svg id="Capa_1" data-name="Capa 1" xmlns="http://www.w3.org/2000/svg" viewBox="0 0 205.08 101.07" width="65" height="32"><title>ELEMENTOS SITIO WEB</title><path d="M204.37,1.35A3.44,3.44,0,0,0,201.63,0h-173a3.45,3.45,0,0,0-3.33,2.56L.54,95.14.12,96.73a3.42,3.42,0,0,0-.12.78,3.45,3.45,0,0,0,3.45,3.56h173a3.45,3.45,0,0,0,3.33-2.56L205,4.34A3.48,3.48,0,0,0,204.37,1.35ZM26.07,80.18a18.79,18.79,0,0,0-12.49-7.09l12-44.92c12-.78,23.55-9.67,27.84-21.27H173.64c-.12,5.33,1.26,9.86,4.2,13.47,4.2,5.17,10.39,6.93,13.69,7.52l-12,45c-3.32.3-21.18,2.84-29.51,21.25H29.86A19.6,19.6,0,0,0,26.07,80.18Z"/><path d="M92.62,85.8c19.62,0,40-15.93,45.47-35.49C140.9,40.2,139.46,30.7,134,23.55,128.84,16.72,120.66,13,111,13,91.36,13,71,28.88,65.51,48.45c-2.81,10.11-1.37,19.61,4.06,26.76C74.76,82,82.94,85.8,92.62,85.8ZM72.16,50.31C76.83,33.52,94.25,19.86,111,19.86c7.47,0,13.7,2.79,17.55,7.86,4.1,5.4,5.13,12.76,2.91,20.73C126.77,65.24,109.35,78.9,92.62,78.9c-7.47,0-13.7-2.8-17.55-7.86C71,65.64,69.94,58.28,72.16,50.31Z"/><path d="M96.72,71.08c10.32,0,20.64-8,23.5-18.31a3.45,3.45,0,0,0-6.65-1.85c-2,7.19-9.72,13.25-16.85,13.25a8.43,8.43,0,0,1-7-3.05c-1.61-2.12-2-5.09-1.09-8.35A3.45,3.45,0,1,0,82,50.92c-1.48,5.31-.66,10.55,2.25,14.38A15.18,15.18,0,0,0,96.72,71.08Z"/><path d="M94.06,49.38c2.18,0,4.83-3.22,5.94-7.19S100.24,35,98.07,35s-4.83,3.22-5.94,7.18S91.89,49.38,94.06,49.38Z"/><path d="M108.43,49.38c2.18,0,4.83-3.22,5.94-7.19s.24-7.18-1.93-7.18-4.83,3.22-5.94,7.18S106.26,49.38,108.43,49.38Z"/></svg>