<svg id="Capa_1" data-name="Capa 1" xmlns="http://www.w3.org/2000/svg" viewBox="0 0 98.33 88.66" width="36" height="33"><title>ELEMENTOS SITIO WEB</title><path d="M97.65,39.53l-.2-.93a27.14,27.14,0,0,0-4.7-10.09,32.55,32.55,0,0,0-9.21-8.29,51.56,51.56,0,0,0-9.32-4.39,35.75,35.75,0,0,0-7.59-1.94c-.56-.09-1.13-.2-1.72-.31v-12A1.58,1.58,0,0,0,62.36.34L33.71,22.84a1.58,1.58,0,0,0-.6,1.24,1.55,1.55,0,0,0,.6,1.24l4.47,3.51c3.32,2.62,6.59,5.2,9.9,7.71,1.8,1.36,3.56,2.79,5.33,4.24,2.9,2.36,5.89,4.8,9.17,7a1.49,1.49,0,0,0,.88.28,1.62,1.62,0,0,0,.74-.18A1.58,1.58,0,0,0,65,46.5V33.68c.93,0,1.85,0,2.76,0A41.85,41.85,0,0,1,74,34.1l.8.12a40.05,40.05,0,0,1,8,1.8A21,21,0,0,1,95.08,47a1.57,1.57,0,0,0,1.58.88A1.59,1.59,0,0,0,98,46.66,14.64,14.64,0,0,0,97.65,39.53Z"/><path d="M60.2,59.86c-3.35-2.63-6.63-5.22-10-7.74-1.81-1.36-3.57-2.8-5.35-4.26-2.89-2.35-5.88-4.78-9.15-7a1.58,1.58,0,0,0-2.46,1.31V55c-.93,0-1.85,0-2.77,0a43.35,43.35,0,0,1-6.19-.37l-.83-.13a39.38,39.38,0,0,1-7.94-1.79A21,21,0,0,1,3.25,41.7a1.6,1.6,0,0,0-1.58-.88A1.58,1.58,0,0,0,.3,42a14.88,14.88,0,0,0,.38,7.16l.2.9a27.14,27.14,0,0,0,4.7,10.09,32.64,32.64,0,0,0,9.2,8.29,52.33,52.33,0,0,0,9.33,4.39,35.81,35.81,0,0,0,7.58,1.94c.57.09,1.13.19,1.73.31v12a1.57,1.57,0,0,0,.88,1.42A1.58,1.58,0,0,0,36,88.32l28.65-22.5a1.58,1.58,0,0,0,.6-1.24,1.53,1.53,0,0,0-.61-1.24Z"/></svg>